# xmcd
#
# Track frame offsets: 
#        150
#        21617
#        39867
#        61725
#
# Disc length: 1398 seconds
#
# Revision: 6
# Processed by: cddbd v1.5.2PL0 Copyright (c) Steve Scherf et al.
# Submitted via: ExactAudioCopyFreeDBPlugin 1.0
#
DISCID=2a057404
DTITLE=Dru Hill - In My Bed (MCD)
DYEAR=1997
DGENRE=R&B
TTITLE0=In My Bed (LP Version)
TTITLE1=In My Bed (So So Def Mix)
TTITLE2=In My Bed (2620 Bedroom Mix)
TTITLE3=Tell Me (Club Mix)
EXTD=
EXTT0=
EXTT1=
EXTT2=
EXTT3=
PLAYORDER=
